PathFileType	4	(X/Y/Z)	s09c0303.trc
DataRate	CameraRate	NumFrames	NumMarkers	Units	OrigDataRate	OrigDataStartFrame	OrigNumFrames
200	200	5	50	mm	200	1250	2000
Frame#	Time	racr			lacr			c7			jug			rlel			rdr			llel			ldr			s2			lic			ric			lasi			rasi			rpsi			lpsi			rgt			lgt			rth1			rth2			rth3			rth4			rlfc			rmfc			rsh1			rsh2			rsh3			rsh4			rlmal			rmmal			rcal			rtoe			rmt5			lth1			lth2			lth4			lth3			llfc			lmfc			llmal			lmmal			lcal			lmt5			lsh1			lsh2			lsh3			lsh4			ltoe			SBIKE			LBIKE			RBIKE			
		X1	Y1	Z1	X2	Y2	Z2	X3	Y3	Z3	X4	Y4	Z4	X5	Y5	Z5	X6	Y6	Z6	X7	Y7	Z7	X8	Y8	Z8	X9	Y9	Z9	X10	Y10	Z10	X11	Y11	Z11	X12	Y12	Z12	X13	Y13	Z13	X14	Y14	Z14	X15	Y15	Z15	X16	Y16	Z16	X17	Y17	Z17	X18	Y18	Z18	X19	Y19	Z19	X20	Y20	Z20	X21	Y21	Z21	X22	Y22	Z22	X23	Y23	Z23	X24	Y24	Z24	X25	Y25	Z25	X26	Y26	Z26	X27	Y27	Z27	X28	Y28	Z28	X29	Y29	Z29	X30	Y30	Z30	X31	Y31	Z31	X32	Y32	Z32	X33	Y33	Z33	X34	Y34	Z34	X35	Y35	Z35	X36	Y36	Z36	X37	Y37	Z37	X38	Y38	Z38	X39	Y39	Z39	X40	Y40	Z40	X41	Y41	Z41	X42	Y42	Z42	X43	Y43	Z43	X44	Y44	Z44	X45	Y45	Z45	X46	Y46	Z46	X47	Y47	Z47	X48	Y48	Z48	X49	Y49	Z49	X50	Y50	Z50	
1250	6.2500	779.867775	1217.231417	-73.759705	770.125942	1221.934113	-441.828196	786.548578	1285.084251	-253.945995	777.711059	1154.554571	-261.482275	605.064579	1062.096514	42.665403	718.467097	875.065371	-44.327687	573.312781	1050.504442	-551.222127	714.164822	882.242614	-443.960246	294.331706	1180.240569	-265.187373	438.000053	1147.730972	-404.088097	415.183409	1125.529994	-106.921923	457.565920	1082.515193	-385.023321	442.659537	1063.258332	-128.834450	325.332904	1195.677148	-199.843482	336.941953	1211.847862	-303.934017	337.942938	994.020453	-80.826297	391.590969	1043.414074	-454.352098	367.138902	862.912658	-81.751581	404.527282	783.408952	-85.982778	392.213639	696.048488	-96.923933	436.896776	787.876284	-104.887001	403.179294	605.955491	-120.675561	382.907319	582.346258	-216.056644	348.649844	520.113899	-84.415984	349.993577	430.369657	-91.899640	306.932399	354.538000	-88.380927	376.900675	425.518034	-120.383713	272.919253	257.141920	-83.391314	284.310948	262.712823	-157.284708	198.669239	256.430754	-120.009782	428.938555	123.313490	-127.754348	347.747288	146.759093	-61.937115	482.891682	936.744865	-448.376206	554.469714	894.809817	-426.905664	576.685372	917.202691	-404.844719	599.327809	816.413412	-421.537819	626.476559	724.296923	-396.495477	620.464811	710.374070	-295.970879	282.445376	603.274462	-420.529422	295.239963	601.580491	-345.310904	205.037189	638.728964	-380.076217	267.244769	476.391523	-433.408792	536.843541	689.798978	-420.886827	463.067869	643.926637	-413.368106	374.279133	639.682153	-418.893713	471.011823	621.687752	-381.926754	345.367154	420.653452	-358.078510	-63.994502	850.883840	-240.171897	21.238010	84.163812	-442.295297	21.170489	83.955313	-43.833747	
1251	6.2550	783.714923	1216.290436	-78.821567	766.707843	1221.149196	-446.766789	787.435740	1284.100628	-259.273349	777.233433	1153.341780	-266.727182	609.143187	1063.892333	41.785297	719.553981	875.070815	-44.821644	569.255616	1047.353402	-551.237944	713.428101	881.924604	-444.341079	293.896455	1179.236911	-259.601037	435.487749	1148.933514	-402.880298	418.610408	1121.933418	-105.682610	456.387234	1083.596577	-385.387445	444.691631	1060.280942	-129.521626	326.437125	1194.180500	-194.933936	335.875890	1211.270061	-298.266743	341.011385	991.369246	-78.990637	388.067417	1044.436075	-452.295914	366.504567	861.300267	-80.615008	402.201208	781.217580	-85.545185	387.452852	694.046456	-95.734728	433.746267	784.710007	-105.517391	396.154312	603.968194	-120.223719	374.458246	580.204663	-215.779622	341.059466	518.410124	-83.858785	342.103244	428.856319	-91.077543	298.789848	353.088530	-87.735345	368.881234	423.837647	-119.959207	264.440168	255.824696	-82.877762	275.903195	261.397873	-156.739818	190.278902	256.249573	-119.584960	418.290711	119.578247	-127.825070	337.565673	144.333230	-61.870805	484.519976	939.648719	-444.767425	554.976636	898.883592	-426.638189	577.496424	922.535484	-404.782853	602.412086	822.339642	-421.653857	632.941815	731.007623	-396.517379	627.176075	717.371088	-293.898244	290.280982	605.610182	-420.094923	303.103925	604.579890	-345.157586	211.576900	639.805881	-380.070918	277.948411	478.979668	-433.628688	543.620229	695.983419	-420.640327	470.423779	649.113681	-413.280123	381.681491	643.725040	-418.478622	478.603908	626.872706	-381.894571	356.899516	424.950039	-358.171383	-64.009762	850.845925	-240.102156	21.225706	84.132378	-442.299042	21.154799	83.957801	-43.855437	
1252	6.2600	787.477573	1215.521520	-84.055239	763.359743	1220.237464	-451.798232	787.868704	1283.219787	-264.750884	777.206111	1152.087236	-271.624990	613.020366	1065.719360	40.389264	720.243033	874.870297	-45.626515	565.662150	1044.227638	-551.500450	712.677094	881.758978	-444.929967	293.673917	1178.365764	-254.187468	433.032364	1150.251873	-401.733572	422.237437	1118.621511	-104.692455	454.311230	1084.832144	-384.651100	446.912977	1057.409209	-130.231781	327.659944	1192.807183	-190.306990	334.388824	1211.867008	-297.060575	343.975938	989.069390	-77.241681	384.686438	1045.213468	-450.231422	366.189545	860.397104	-79.279254	400.019486	779.608136	-84.575861	383.084963	692.639953	-94.142811	430.673439	782.183513	-106.067745	389.367292	602.434512	-119.372316	364.970010	579.748661	-215.109636	333.775216	517.482554	-82.993804	334.386347	427.779910	-90.264375	290.725221	352.166037	-86.953146	361.073526	422.718618	-119.215155	255.931442	255.335990	-82.297026	267.169896	260.851990	-156.060183	181.844481	256.792906	-119.024813	407.616863	116.638801	-127.890720	327.390450	142.417765	-61.776746	484.148541	942.609699	-443.304114	557.106945	903.494202	-425.036543	578.569580	928.124699	-404.216949	605.024658	828.172990	-421.614722	639.109116	737.189724	-397.002482	633.766950	723.112636	-296.527940	297.980204	607.213133	-419.602616	309.770273	606.086323	-344.649115	218.025297	639.981595	-379.998676	288.747812	480.891788	-433.836500	549.911437	701.996063	-420.487034	477.485266	653.982326	-413.208464	388.835691	647.182129	-418.080944	486.127398	631.628003	-382.198901	368.559033	428.627757	-357.916416	-64.043743	850.832490	-240.129837	21.223447	84.121976	-442.290930	21.147710	83.955191	-43.868134	
1253	6.2650	791.094862	1214.893960	-89.439342	760.112019	1219.130049	-456.782051	788.283079	1282.310858	-270.382537	777.157772	1150.810461	-276.378986	616.787306	1067.548908	38.577046	720.869471	874.792726	-46.447198	562.356780	1040.989650	-552.427803	712.003315	881.469060	-445.553755	293.575930	1177.713267	-249.114194	430.647599	1151.669575	-400.645826	426.026683	1115.903371	-103.894756	452.556183	1086.116775	-384.516533	449.067263	1054.954834	-131.190913	331.262559	1191.257567	-186.888950	332.521668	1212.063477	-294.244780	347.010944	987.467719	-75.042085	380.995430	1046.160605	-448.488779	366.172754	860.072367	-77.970023	398.129695	778.314030	-83.769085	379.177041	691.929386	-92.295868	427.996276	780.314260	-106.412834	383.067773	601.308217	-118.330525	358.300963	578.781510	-214.082696	327.006071	516.883516	-81.912882	326.910475	427.253485	-89.340486	282.715573	351.956948	-85.986360	353.612885	421.959964	-118.187951	247.296710	255.622893	-81.340397	258.644959	260.844739	-155.307608	173.473728	258.001730	-118.130747	396.767744	114.512918	-128.157939	317.154871	141.316332	-61.699237	483.618708	945.544223	-441.927011	557.550654	908.297401	-425.021287	577.579351	933.040062	-405.206748	607.078043	833.515735	-421.925226	644.958754	744.794322	-396.560641	639.798493	730.554302	-295.798426	305.582916	608.126012	-419.138672	317.597306	607.222351	-344.108503	224.303848	639.282201	-379.870859	299.622022	482.230202	-434.009265	555.611150	707.627565	-420.648267	484.110691	658.579202	-413.302921	395.635378	650.097364	-417.751690	493.321585	635.876013	-382.413399	380.166460	431.882972	-358.154373	-64.078203	850.824178	-240.159575	21.223468	84.122992	-442.284158	21.155937	83.992460	-43.871299	
1254	6.2700	794.408907	1214.462070	-94.676863	757.000743	1217.860126	-461.828628	789.168419	1281.308236	-275.941429	776.495751	1149.687954	-280.745614	620.413144	1069.502496	36.422815	721.562940	874.876288	-46.969035	558.710032	1037.937510	-552.583646	711.306311	881.229205	-446.121739	294.122904	1177.718637	-244.427269	428.350240	1153.169773	-399.617559	429.714266	1113.732492	-103.188756	451.040802	1087.464137	-384.836576	451.158351	1053.153215	-131.832540	331.825794	1191.061945	-182.627458	331.512786	1212.272799	-289.967925	349.978004	986.558795	-72.818153	377.319955	1046.990395	-446.961174	366.414392	860.272629	-76.621587	397.001121	777.437881	-82.892056	375.738373	691.729905	-90.209005	425.729952	779.317985	-105.539686	377.401291	600.584198	-117.042352	351.741240	577.914829	-212.803788	320.825777	516.795311	-80.644790	319.814275	427.225494	-88.532746	274.979984	352.326248	-84.824034	346.424716	421.653565	-117.129222	238.747311	256.252837	-80.180878	249.757607	261.573995	-154.169602	164.329651	260.605115	-116.139410	385.819199	113.158385	-128.807582	307.116452	140.818346	-61.705315	483.106009	948.378154	-440.627532	558.077873	912.756752	-424.597518	577.786298	938.007091	-405.610516	609.421551	839.436541	-420.766214	649.958390	751.672629	-396.930126	645.384311	736.943182	-296.062317	312.901305	608.397326	-418.634866	324.799393	608.034059	-343.658973	230.483955	637.850726	-379.803256	310.486918	482.820356	-434.331235	561.171631	712.951074	-420.140397	490.433000	662.531763	-413.259162	402.123656	652.409435	-417.353447	500.258643	639.810548	-382.702074	391.849696	434.551355	-358.234539	-64.118425	850.819320	-240.199305	21.227146	84.107702	-442.309448	21.160666	83.991405	-43.853449	
